<svg width="324" height="67" viewBox="0 0 324 67" fill="none" xmlns="http://www.w3.org/2000/svg">
<path fill-rule="evenodd" clip-rule="evenodd" d="M19.2572 18.545C18.4979 18.8487 18 19.5842 18 20.402V54.2289C18 55.6066 19.3603 56.5718 20.6607 56.1167L31 52.4979V30.8887C31 30.3155 31.3485 29.8001 31.8801 29.5872L38 27.1362V14.002C38 12.587 36.5709 11.6195 35.2572 12.145L19.2572 18.545Z" fill="#7445FF" fill-opacity="0.5"/>
<path d="M34 32.8887C34 32.3155 34.3485 31.8001 34.8801 31.5872L46.0801 27.1016C46.9997 26.7333 48 27.4114 48 28.4031V52.6722C48 53.2679 47.624 53.7985 47.0625 53.9953L35.8625 57.9202C34.9522 58.2391 34 57.5627 34 56.5971V32.8887Z" fill="#F36CFF" fill-opacity="0.25"/>
<path fill-rule="evenodd" clip-rule="evenodd" d="M1.57152 7.99065C0.622377 8.36146 0 9.25931 0 10.2578V51.5562C0 53.2382 1.70044 54.4166 3.32587 53.8609L15 49.8702V18.402C15 17.5842 15.4979 16.8487 16.2572 16.545L25 13.0479V2.44416C25 0.716706 23.2137 -0.464509 21.5715 0.17705L1.57152 7.99065Z" fill="#5856D6"/>
<path d="M60.546 55L74.69 18.6H81.008L95.516 55H88.938L85.584 46.316H70.166L66.942 55H60.546ZM71.674 41.298H84.024L77.732 25.438L71.674 41.298ZM100.787 55V18.6H114.541C117.071 18.6 119.255 19.042 121.093 19.926C122.947 20.7927 124.377 22.032 125.383 23.644C126.405 25.256 126.917 27.1713 126.917 29.39C126.917 31.1927 126.527 32.7873 125.747 34.174C124.984 35.5607 123.909 36.7047 122.523 37.606C121.136 38.49 119.533 39.088 117.713 39.4L128.685 55H121.639L111.577 40.31H106.611V55H100.787ZM106.611 35.474H113.579C115.936 35.474 117.765 34.9713 119.065 33.966C120.382 32.9607 121.041 31.522 121.041 29.65C121.041 27.726 120.451 26.2267 119.273 25.152C118.111 24.0773 116.352 23.54 113.995 23.54H106.611V35.474ZM146.368 55.78C143.664 55.78 141.255 55.1907 139.14 54.012C137.025 52.816 135.361 51.1953 134.148 49.15C132.952 47.0873 132.354 44.7473 132.354 42.13C132.354 40.154 132.709 38.3427 133.42 36.696C134.131 35.032 135.136 33.5847 136.436 32.354C137.736 31.1233 139.261 30.17 141.012 29.494C142.78 28.818 144.695 28.48 146.758 28.48C148.491 28.48 150.095 28.714 151.568 29.182C153.059 29.6327 154.428 30.3347 155.676 31.288L152.92 35.656C152.123 34.9453 151.204 34.4167 150.164 34.07C149.141 33.7233 148.049 33.55 146.888 33.55C145.085 33.55 143.534 33.888 142.234 34.564C140.934 35.24 139.92 36.2193 139.192 37.502C138.481 38.7673 138.126 40.3013 138.126 42.104C138.126 44.7907 138.906 46.8967 140.466 48.422C142.043 49.9473 144.184 50.71 146.888 50.71C148.171 50.71 149.384 50.476 150.528 50.008C151.672 49.5227 152.625 48.89 153.388 48.11L156.118 52.452C154.749 53.492 153.223 54.3067 151.542 54.896C149.861 55.4853 148.136 55.78 146.368 55.78ZM161.376 55V17.56H167.096V34.512L165.926 33.238C167.07 31.6433 168.448 30.456 170.06 29.676C171.672 28.8787 173.371 28.48 175.156 28.48C177.496 28.48 179.446 28.9567 181.006 29.91C182.566 30.846 183.736 32.0593 184.516 33.55C185.296 35.0407 185.686 36.592 185.686 38.204V55H179.966V39.842C179.966 38.0393 179.403 36.5747 178.276 35.448C177.15 34.3213 175.616 33.7493 173.674 33.732C172.392 33.732 171.256 34.018 170.268 34.59C169.28 35.1447 168.5 35.9333 167.928 36.956C167.374 37.9787 167.096 39.166 167.096 40.518V55H161.376ZM193.369 55V29.26H199.089V55H193.369ZM196.229 24.658C195.206 24.658 194.322 24.3287 193.577 23.67C192.831 23.0113 192.459 22.1447 192.459 21.07C192.459 20.0127 192.831 19.1547 193.577 18.496C194.322 17.82 195.206 17.482 196.229 17.482C197.251 17.482 198.135 17.82 198.881 18.496C199.626 19.1547 199.999 20.0127 199.999 21.07C199.999 22.1447 199.626 23.0113 198.881 23.67C198.135 24.3287 197.251 24.658 196.229 24.658ZM217.845 55.78C215.331 55.78 213.321 55.052 211.813 53.596C210.305 52.14 209.551 49.9127 209.551 46.914V21.746H215.271V29.26H222.421V33.992H215.271V45.666C215.271 47.4687 215.609 48.7427 216.285 49.488C216.978 50.216 217.949 50.58 219.197 50.58C219.803 50.58 220.375 50.5107 220.913 50.372C221.45 50.2333 221.935 50.0513 222.369 49.826L223.383 54.454C222.637 54.8353 221.779 55.1473 220.809 55.39C219.855 55.65 218.867 55.78 217.845 55.78ZM203.909 33.992V29.26H210.305V33.992H203.909ZM240.972 55.78C238.199 55.78 235.764 55.2167 233.666 54.09C231.569 52.946 229.931 51.3513 228.752 49.306C227.591 47.2607 227.01 44.886 227.01 42.182C227.01 40.206 227.348 38.386 228.024 36.722C228.7 35.0407 229.654 33.5847 230.884 32.354C232.115 31.1233 233.554 30.17 235.2 29.494C236.864 28.818 238.676 28.48 240.634 28.48C242.766 28.48 244.664 28.8613 246.328 29.624C247.992 30.3693 249.37 31.418 250.462 32.77C251.572 34.122 252.352 35.708 252.802 37.528C253.27 39.3307 253.348 41.2893 253.036 43.404H232.496C232.462 44.9467 232.8 46.2987 233.51 47.46C234.221 48.604 235.235 49.4967 236.552 50.138C237.887 50.7793 239.456 51.1 241.258 51.1C242.714 51.1 244.118 50.8833 245.47 50.45C246.84 49.9993 248.079 49.3407 249.188 48.474L251.398 52.582C250.566 53.258 249.561 53.8387 248.382 54.324C247.204 54.792 245.973 55.1473 244.69 55.39C243.408 55.65 242.168 55.78 240.972 55.78ZM232.834 39.192H247.42C247.368 37.2507 246.744 35.7253 245.548 34.616C244.37 33.5067 242.688 32.952 240.504 32.952C238.39 32.952 236.63 33.5067 235.226 34.616C233.84 35.7253 233.042 37.2507 232.834 39.192ZM271.036 55.78C268.332 55.78 265.923 55.1907 263.808 54.012C261.693 52.816 260.029 51.1953 258.816 49.15C257.62 47.0873 257.022 44.7473 257.022 42.13C257.022 40.154 257.377 38.3427 258.088 36.696C258.799 35.032 259.804 33.5847 261.104 32.354C262.404 31.1233 263.929 30.17 265.68 29.494C267.448 28.818 269.363 28.48 271.426 28.48C273.159 28.48 274.763 28.714 276.236 29.182C277.727 29.6327 279.096 30.3347 280.344 31.288L277.588 35.656C276.791 34.9453 275.872 34.4167 274.832 34.07C273.809 33.7233 272.717 33.55 271.556 33.55C269.753 33.55 268.202 33.888 266.902 34.564C265.602 35.24 264.588 36.2193 263.86 37.502C263.149 38.7673 262.794 40.3013 262.794 42.104C262.794 44.7907 263.574 46.8967 265.134 48.422C266.711 49.9473 268.852 50.71 271.556 50.71C272.839 50.71 274.052 50.476 275.196 50.008C276.34 49.5227 277.293 48.89 278.056 48.11L280.786 52.452C279.417 53.492 277.891 54.3067 276.21 54.896C274.529 55.4853 272.804 55.78 271.036 55.78ZM296.86 55.78C294.347 55.78 292.336 55.052 290.828 53.596C289.32 52.14 288.566 49.9127 288.566 46.914V21.746H294.286V29.26H301.436V33.992H294.286V45.666C294.286 47.4687 294.624 48.7427 295.3 49.488C295.994 50.216 296.964 50.58 298.212 50.58C298.819 50.58 299.391 50.5107 299.928 50.372C300.466 50.2333 300.951 50.0513 301.384 49.826L302.398 54.454C301.653 54.8353 300.795 55.1473 299.824 55.39C298.871 55.65 297.883 55.78 296.86 55.78ZM282.924 33.992V29.26H289.32V33.992H282.924Z" fill="#5856D6"/>
</svg>
